<svg version="1.1" xmlns="http://www.w3.org/2000/svg" style="display: block;" viewBox="0 0 2048 2048" width="1024" height="1024" preserveAspectRatio="none" xmlns:c2pa="http://c2pa.org/manifest"><metadata><c2pa:manifest>AAAMZ2p1bWIAAAAeanVtZGMycGEAEQAQgAAAqgA4m3EDYzJwYQAAAAxBanVtYgAAAEdqdW1kYzJtYQARABCAAACqADibcQN1cm46YzJwYTo3ZTQ1NDYxYi01YzNjLTRhZGQtYjgxOS01OWEwZjg4MWQ1Y2UAAAAB4mp1bWIAAAApanVtZGMyYXMAEQAQgAAAqgA4m3EDYzJwYS5hc3NlcnRpb25zAAAAAO1qdW1iAAAAQWp1bWRjYm9yABEAEIAAAKoAOJtxE2MycGEuYWN0aW9ucy52MgAAAAAYYzJzaOpfAPOYmZBKb9yuGSdtxcwAAACkY2JvcqFnYWN0aW9uc4GjZmFjdGlvbmxjMnBhLmNyZWF0ZWRxZGlnaXRhbFNvdXJjZVR5cGV4Rmh0dHA6Ly9jdi5pcHRjLm9yZy9uZXdzY29kZXMvZGlnaXRhbHNvdXJjZXR5cGUvdHJhaW5lZEFsZ29yaXRobWljTWVkaWFrZGVzY3JpcHRpb252Q3JlYXRlZCBieSBSZWNyYWZ0IEFJLgAAAMRqdW1iAAAAQGp1bWRjYm9yABEAEIAAAKoAOJtxE2MycGEuaGFzaC5kYXRhAAAAABhjMnNo8EaDGhMh3xsxMmUbA8UurgAAAHxjYm9ypWpleGNsdXNpb25zgaJlc3RhcnQY22ZsZW5ndGgZEIxkbmFtZW5qdW1iZiBtYW5pZmVzdGNhbGdmc2hhMjU2ZGhhc2hYIKZFX9HRF+lUeZq1laSsFbcTovQyYFDd41D0qQDx2WGKY3BhZEkAAAAAAAAAAAAAAAI0anVtYgAAACdqdW1kYzJjbAARABCAAACqADibcQNjMnBhLmNsYWltLnYyAAAAAgVjYm9ypmppbnN0YW5jZUlEeCx4bXA6aWlkOjZlOTUzMmU3LTI5OTItNDZmZS1hNzM4LTJmZTBjZjIyMWJkNXRjbGFpbV9nZW5lcmF0b3JfaW5mb6NkbmFtZWpyZWNyYWZ0LmFpZ3ZlcnNpb254KDgxY2U4MmUyYzVjM2NiZmJlOGM2ZmJlMTc5ZDVmOGQ5MWM0MDljZTF3b3JnLmNvbnRlbnRhdXRoLmMycGFfcnNmMC45MC43aXNpZ25hdHVyZXhNc2VsZiNqdW1iZj0vYzJwYS91cm46YzJwYTo3ZTQ1NDYxYi01YzNjLTRhZGQtYjgxOS01OWEwZjg4MWQ1Y2UvYzJwYS5zaWduYXR1cmVyY3JlYXRlZF9hc3NlcnRpb25zgqJjdXJseCpzZWxmI2p1bWJmPWMycGEuYXNzZXJ0aW9ucy9jMnBhLmFjdGlvbnMudjJkaGFzaFggIFHl7pDANIpfr7A7iwRel7hqd5jjbZ+FASL9YwDpqRCiY3VybHgpc2VsZiNqdW1iZj1jMnBhLmFzc2VydGlvbnMvYzJwYS5oYXNoLmRhdGFkaGFzaFggErvs6TC0XhhSxopBd2/EEwqRh3oJB7RRw96bltFL+IRoZGM6dGl0bGV4GlJlY3JhZnQgQUkgR2VuZXJhdGVkIEltYWdlY2FsZ2ZzaGEyNTYAAAfcanVtYgAAAChqdW1kYzJjcwARABCAAACqADibcQNjMnBhLnNpZ25hdHVyZQAAAAesY2JvctKEWQOwogEmGCGCWQHnMIIB4zCCAYmgAwIBAgIJALfeWmNDUW56MAoGCCqGSM49BAMCMEAxHzAdBgNVBAMMFlJlY3JhZnQgU3RhZ2luZyBEZXYgQ0ExEDAOBgNVBAoMB1JlY3JhZnQxCzAJBgNVBAYTAlVTMB4XDTI2MDYxMjE5NDM1MFoXDTI3MDYxMjE5NDM1MFowNzELMAkGA1UEBhMCVVMxEzARBgNVBAoTClJlY3JhZnQgQUkxEzARBgNVBAMTCnJlY3JhZnQuYWkwWTATBgcqhkjOPQIBBggqhkjOPQMBBwNCAARKaTVbACsg/DeG3LeOxYdID/VA6EFG73E6Oknb+KIiCFJygRUz4ueN2z/t2qYb6CIUvS8RvgOiiClfoqsYtw81o3UwczAMBgNVHRMBAf8EAjAAMA4GA1UdDwEB/wQEAwIGwDATBgNVHSUEDDAKBggrBgEFBQcDBDAdBgNVHQ4EFgQULzHpBen96SL1y4IPHa8MkMshXf0wHwYDVR0jBBgwFoAUAgsqOBrKqpdK//m/kxZo7ZR4ebcwCgYIKoZIzj0EAwIDSAAwRQIgU8hKW0aXvvk8SQgVFNkax69Ym9ae8GsT2RZTQw+B51ACIQC0D4BkEoRD4N0r2ZRkNy0HZaW3WICy/QZGN95ilF4yzFkBvTCCAbkwggFfoAMCAQICCQCc+Wg7T6ATbzAKBggqhkjOPQQDAjBAMR8wHQYDVQQDDBZSZWNyYWZ0IFN0YWdpbmcgRGV2IENBMRAwDgYDVQQKDAdSZWNyYWZ0MQswCQYDVQQGEwJVUzAeFw0yNjA2MTIxOTQwMTZaFw0yODA2MTExOTQwMTZaMEAxHzAdBgNVBAMMFlJlY3JhZnQgU3RhZ2luZyBEZXYgQ0ExEDAOBgNVBAoMB1JlY3JhZnQxCzAJBgNVBAYTAlVTMFkwEwYHKoZIzj0CAQYIKoZIzj0DAQcDQgAEQ9IQBlcVbKaKPYrQSfOhL/00s7xUDC7RinIuLO/I1k99y9yh6oWF9kPxaP+tx1v1PeOL3yrVquJ730H0ZGiDyqNCMEAwDwYDVR0TAQH/BAUwAwEB/zAOBgNVHQ8BAf8EBAMCAYYwHQYDVR0OBBYEFAILKjgayqqXSv/5v5MWaO2UeHm3MAoGCCqGSM49BAMCA0gAMEUCIFQwNImLlYDeQhjgF+ZiqTbgcuzSqmOJw3Q2lQ/hu83FAiEA9O8cLm/xfoVLqB4jtdbuHzi3WL+p2RN+DRGkwpYswVuhY3BhZFkDpAAAAAAAAAAAAAAAAAAAAAAAAAAAAAAAAAAAAAAAAAAAAAAAAAAAAAAAAAAAAAAAAAAAAAAAAAAAAAAAAAAAAAAAAAAAAAAAAAAAAAAAAAAAAAAAAAAAAAAAAAAAAAAAAAAAAAAAAAAAAAAAAAAAAAAAAAAAAAAAAAAAAAAAAAAAAAAAAAAAAAAAAAAAAAAAAAAAAAAAAAAAAAAAAAAAAAAAAAAAAAAAAAAAAAAAAAAAAAAAAAAAAAAAAAAAAAAAAAAAAAAAAAAAAAAAAAAAAAAAAAAAAAAAAAAAAAAAAAAAAAAAAAAAAAAAAAAAAAAAAAAAAAAAAAAAAAAAAAAAAAAAAAAAAAAAAAAAAAAAAAAAAAAAAAAAAAAAAAAAAAAAAAAAAAAAAAAAAAAAAAAAAAAAAAAAAAAAAAAAAAAAAAAAAAAAAAAAAAAAAAAAAAAAAAAAAAAAAAAAAAAAAAAAAAAAAAAAAAAAAAAAAAAAAAAAAAAAAAAAAAAAAAAAAAAAAAAAAAAAAAAAAAAAAAAAAAAAAAAAAAAAAAAAAAAAAAAAAAAAAAAAAAAAAAAAAAAAAAAAAAAAAAAAAAAAAAAAAAAAAAAAAAAAAAAAAAAAAAAAAAAAAAAAAAAAAAAAAAAAAAAAAAAAAAAAAAAAAAAAAAAAAAAAAAAAAAAAAAAAAAAAAAAAAAAAAAAAAAAAAAAAAAAAAAAAAAAAAAAAAAAAAAAAAAAAAAAAAAAAAAAAAAAAAAAAAAAAAAAAAAAAAAAAAAAAAAAAAAAAAAAAAAAAAAAAAAAAAAAAAAAAAAAAAAAAAAAAAAAAAAAAAAAAAAAAAAAAAAAAAAAAAAAAAAAAAAAAAAAAAAAAAAAAAAAAAAAAAAAAAAAAAAAAAAAAAAAAAAAAAAAAAAAAAAAAAAAAAAAAAAAAAAAAAAAAAAAAAAAAAAAAAAAAAAAAAAAAAAAAAAAAAAAAAAAAAAAAAAAAAAAAAAAAAAAAAAAAAAAAAAAAAAAAAAAAAAAAAAAAAAAAAAAAAAAAAAAAAAAAAAAAAAAAAAAAAAAAAAAAAAAAAAAAAAAAAAAAAAAAAAAAAAAAAAAAAAAAAAAAAAAAAAAAAAAAAAAAAAAAAAAAAAAAAAAAAAAAAAAAAAAAAAAAAAAAAAAAAAAAAAAAAAAAAAAAAAAAAAAAAAAAAAAAAAAAAAAAAAAAAAAAAAAAAAAAAAAAAAAAAAAAAAAAAAAAAAAAAAAAAAAA9lhAPQeqNomlY6NZ9sjOdgu1nhEO+ZtNQVWzHkJmQV0ng+6yZSzfIqFvVvXWAM6mGKBhK5Tp+8KJ0Q/lvxh0qJtT4A==</c2pa:manifest></metadata>
<path transform="translate(0,0)" fill="rgb(248,246,242)" d="M 0 0 L 2048 0 L 2048 2048 L 0 2048 L 0 0 z"/>
<path transform="translate(0,0)" fill="rgb(213,234,236)" d="M 1189.04 374.202 C 1211.11 372.841 1227.65 383.702 1222.5 407.743 C 1239.99 419.695 1257.67 431.579 1275.21 443.46 C 1285.57 450.482 1302.07 464.525 1312.9 469.756 L 1312.57 470.055 L 1313.37 470.51 C 1343.92 459.805 1368.64 479.316 1353.64 509.52 C 1369.81 522.05 1414 566.517 1426.49 582.245 C 1438.82 579.535 1451.24 581.492 1458.29 593.092 C 1461.97 599.229 1463.03 606.583 1461.24 613.509 C 1459.06 621.801 1454.85 626.687 1447.64 630.862 C 1447.82 643.285 1456.35 738.984 1459.22 744.357 C 1474.03 746.797 1484.13 761.46 1482.13 776.102 C 1481.14 783.008 1477.43 789.233 1471.83 793.388 C 1457.44 804.271 1439.25 798.539 1429.37 784.57 C 1404.31 793.964 1383.51 807.489 1363.67 825.129 C 1367.86 838.215 1369.77 851.039 1357.57 860.738 C 1351.48 865.539 1343.67 867.596 1336.01 866.418 C 1317.47 863.618 1311.48 848.205 1314.14 831.413 C 1296.16 819.091 1258.53 799.239 1238.67 788.543 C 1209.81 794.272 1178.24 799.101 1149.12 804.115 C 1126.25 831.267 1089.32 811.311 1097.71 779.293 C 1098.4 776.684 1087.31 769.896 1084.59 768.061 C 1068.97 757.548 1053.33 746.274 1038.07 735.282 C 1031.5 737.874 1028.62 738.025 1021.82 738.595 C 1011.5 755.907 1000.84 773.011 989.83 789.897 C 982.037 801.923 963.57 824.725 967.83 838.817 C 979.455 877.267 993.516 915.322 1005.96 953.574 C 1006.85 956.303 1008.62 958.186 1011.18 959.24 C 1022.91 954.188 1068.94 894.531 1085.97 881.411 C 1120.06 879.639 1156.84 873.89 1190.85 872.854 C 1203.04 849.613 1229.52 845.187 1242.08 869.472 C 1245.69 876.549 1246.24 884.794 1243.62 892.292 C 1235.83 914.572 1201.29 914.056 1191.18 887.123 C 1158.82 891.044 1123.59 891.717 1090.22 895.49 C 1069.65 917.057 1043.51 945.238 1024.43 967.615 C 1026.1 970.407 1028.42 974.129 1029.61 977.158 C 1032.37 984.234 1032.18 992.126 1029.07 999.058 C 1025.95 1005.87 1020.1 1011.04 1012.95 1013.29 C 1002.34 1016.67 994.775 1013.34 985.71 1008.61 C 973.66 1019.85 960.446 1034.37 948.931 1046.39 C 928.314 1067.93 907.703 1089.75 888.654 1112.68 C 890.632 1118.45 892.693 1124.33 892.285 1130.52 C 891.719 1139.07 888.34 1147.48 881.681 1153.11 C 876.983 1157.09 871.263 1158.67 865.169 1158.08 C 857.349 1157.33 850.045 1153.7 845.075 1147.56 C 840.378 1141.75 837.939 1134.15 839.147 1126.7 C 840.356 1119.25 845.365 1112.57 851.491 1108.34 C 857.117 1104.44 863.698 1102.59 870.446 1104.08 C 872.253 1104.47 873.516 1104.84 875.407 1104.78 C 876.405 1104.74 945.814 1030.79 952.184 1023.16 C 943.895 1011.09 936.007 996.973 928.119 984.321 C 914.515 962.617 900.672 941.064 886.594 919.666 C 876.254 935.808 853.508 960.914 840.663 977.353 C 826.028 996.081 809.869 1022.21 795.445 1039.38 C 779.133 1043.98 756.386 1047.39 739.256 1050.32 C 734.684 1062.08 727.462 1071.8 713.956 1073.19 C 706.893 1073.95 699.82 1071.85 694.314 1067.36 C 686.277 1060.71 684.606 1053.34 683.743 1043.57 C 675.213 1038.48 659.61 1024.13 652.322 1016.92 C 654.953 982.953 659.063 929.339 652.573 896.093 C 639.971 892.005 628.601 888.511 616.983 881.917 C 603.724 888.382 592.074 892.121 579.131 880.893 C 567.808 871.071 567.18 850.887 578.349 840.656 C 589.932 830.047 608.87 830.676 618.354 843.85 C 625.127 853.027 624.604 860.288 623.661 871.005 C 637.121 876.654 650.871 880.224 664.314 885.589 C 672.232 912.743 669.494 983.003 666.829 1012.08 C 673.93 1018.33 681.446 1024.57 688.667 1030.72 C 706.738 1012.25 723.625 1015.31 737.293 1036.53 C 749.169 1034.95 777.724 1030.84 788.296 1027.56 C 818.408 981.279 842.066 954.226 875.644 912.521 L 880.093 905.975 C 876.408 892.739 867.537 870.703 862.561 856.637 C 854.027 855.229 851.142 854.902 844.445 849.57 C 824.171 866.215 805.542 885.174 785.927 902.723 C 796.066 914.959 799.596 930.33 786.695 942.184 C 780.423 947.845 772.073 950.634 763.657 949.878 C 739.469 947.668 731.788 916.749 749.053 901.234 C 758.296 892.929 766.703 899.063 774.385 893.249 C 796.276 876.68 815.243 853.93 837.3 837.77 C 833.235 829.003 835.433 813.122 843.003 807.509 C 873.107 785.186 910.358 825.12 875.449 851.83 C 884.742 876.49 891.471 902.303 905.836 924.375 C 912.253 934.235 918.507 944.243 924.891 954.133 C 937.513 973.51 949.715 993.156 961.489 1013.06 C 966.111 1008.42 973.075 1003.02 978.292 998.744 C 973.908 979.576 978.324 971.021 994.4 961.191 C 986.69 937.172 978.524 913.302 969.904 889.595 C 964.996 875.709 959.283 861.725 955.793 847.411 C 954.058 840.292 952.224 831.733 954.055 824.519 C 957.292 811.771 997.744 751.939 1008.4 734.397 C 994.824 720.53 991.311 699.032 1009.78 687.692 C 1016.26 683.757 1024.07 682.634 1031.4 684.582 C 1051.93 689.882 1053.58 708.575 1048.19 725.98 C 1066.65 740.305 1087.43 754.51 1106.78 767.702 C 1115.02 762.485 1117.45 762.414 1126.87 761.76 C 1134.79 744.309 1141.69 723.505 1147.97 705.249 C 1143.88 701.649 1140.8 699.129 1138.43 694.087 C 1135.39 687.76 1135.04 680.473 1137.46 673.886 C 1141.13 664.151 1148.38 659.206 1157.47 655.237 C 1155.07 642.695 1153.37 617.884 1151.8 604.028 C 1130.85 601.518 1109.95 598.695 1089.09 595.559 C 1080.71 608.792 1069.9 618.012 1053.56 613.367 C 1018.82 603.492 1034.08 549.944 1070.18 561.809 C 1079.95 565.023 1084.8 573.428 1088.87 582.231 C 1105.12 583.759 1136.55 587.641 1152.15 590.847 C 1159.94 572.285 1168.65 551.026 1175.53 532.223 C 1169.77 520.046 1167.66 505.209 1178.68 495.179 C 1195.69 478.56 1229.13 493.996 1225.36 517.596 C 1221.91 539.145 1204.63 543.906 1186.36 541.2 C 1179.41 558.932 1171.57 581.322 1164.33 598.253 C 1167.71 616.518 1169.67 636.154 1171.61 654.604 C 1182.74 660.65 1191.02 668.949 1191.04 682.533 C 1191.11 689.702 1188.2 696.578 1183.02 701.532 C 1175.84 708.363 1169.32 709.218 1160.18 709.19 C 1154.09 728.87 1146.89 747.155 1140.51 766.618 C 1149.01 776.561 1149.6 776.677 1151.94 790.274 C 1182.24 784.312 1211.6 779.984 1241.73 774.456 C 1249.23 777.925 1261.83 785.718 1269.43 790.038 C 1287.01 800.186 1304.78 809.984 1322.75 819.425 C 1334.76 811.436 1338.81 811.063 1352.64 814.907 C 1380.2 794.372 1394.97 785.463 1425.47 770.116 C 1399.62 760.34 1371.77 751.975 1346.62 740.617 C 1333.14 753.247 1318.48 756.845 1303.12 744.141 C 1298.49 740.306 1295.77 734.592 1295.42 728.602 C 1294.93 720.292 1297.97 712.161 1303.79 706.211 C 1322.66 686.681 1349.59 700.126 1349.26 728.753 C 1376.73 737.573 1403.89 747.363 1430.67 758.106 C 1435.7 752.163 1437.39 749.467 1444.16 745.502 C 1443.07 712.204 1437.52 669.074 1433.72 635.349 C 1412.58 627.082 1398.77 611.018 1414.58 589.465 C 1392.33 564.282 1367.76 542.089 1344.72 517.674 C 1333.04 539.199 1308.38 571.35 1293.43 591.725 C 1307.54 624.663 1280.18 646.111 1251.74 627.964 C 1230.59 614.467 1244.5 583.787 1265.71 580.58 C 1269.69 579.978 1275.52 582.443 1280.81 581.952 C 1291.07 576.745 1319.38 532.089 1326.04 521.564 C 1304.9 516.658 1300.03 500.742 1305.05 481.515 C 1292.43 471.199 1277.61 461.668 1264.08 452.402 C 1247.95 441.36 1232.53 429.931 1215.41 420.53 C 1200.26 432.135 1179.08 429.028 1170.76 411.301 C 1167.81 404.979 1167.62 397.718 1170.23 391.249 C 1173.83 382.06 1180.59 377.877 1189.04 374.202 z"/>
<path transform="translate(0,0)" fill="rgb(213,234,236)" d="M 944.024 251.549 C 1004.09 248.809 1090.66 255.275 1148.72 267.947 C 1298.94 299.37 1429.98 390.39 1511.86 520.183 C 1562.77 599.608 1604.6 726.904 1590.75 822.272 C 1589.77 843.082 1569.25 884.334 1578.17 904.073 C 1605.92 965.514 1637.01 1027.19 1665.18 1088.63 C 1675.93 1112.08 1687.94 1132.73 1696.9 1156.6 C 1700.37 1165.85 1700.79 1177.22 1698.41 1186.56 C 1691 1220.38 1658.23 1231.18 1628.74 1239.07 C 1610.48 1243.94 1593.12 1247.45 1588.35 1269 C 1583.8 1289.51 1582.64 1310.83 1580.22 1331.8 L 1564.44 1466.76 C 1561.6 1491.14 1559.26 1517.91 1554.66 1541.51 C 1547.03 1580.68 1513.23 1609.34 1474.12 1613.92 C 1458.32 1615.78 1435.52 1614.99 1418.7 1614.94 L 1336.56 1614.78 C 1311.82 1614.75 1287.67 1612.85 1266.12 1626.82 C 1234.13 1647.56 1229 1676.46 1221.85 1710.97 C 1218.3 1728.7 1214.61 1746.4 1210.79 1764.08 C 1209.09 1771.56 1207.98 1780.65 1201.78 1784.55 C 1199.98 1784.64 1198 1785.1 1196.34 1784.29 C 1194.36 1783.32 1192.44 1781.42 1191.88 1779.2 C 1189.74 1770.65 1210.76 1682.36 1214.68 1668.55 C 1216.66 1661.5 1219.38 1654.68 1222.81 1648.2 C 1228.93 1636.82 1237.32 1626.82 1247.46 1618.81 C 1279.79 1593.07 1314.44 1597.24 1353.63 1597.5 L 1434.78 1598.06 C 1451.5 1598.17 1468.91 1599.46 1485.1 1594.49 C 1506.09 1588.04 1522.41 1573.89 1531.97 1554.13 C 1542.92 1531.5 1546.57 1471.2 1549.72 1443.6 L 1565.18 1307.9 C 1567.31 1290.26 1567.57 1265.8 1576.46 1250.16 C 1588.44 1229.05 1612.89 1225.28 1634.13 1219.35 C 1651.02 1214.64 1669.82 1207.11 1678.6 1190.77 C 1681.55 1185.28 1683.75 1178.22 1683.02 1171.94 C 1681.26 1156.88 1652.73 1103.44 1644.11 1085.12 L 1588.19 968.479 C 1580.46 952.249 1563.63 919.525 1559.98 902.878 C 1554.44 877.631 1568.46 846.776 1572.57 820.305 C 1580.5 769.263 1571.04 708.468 1556.04 659.319 C 1513.39 519.59 1416.49 402.8 1287.04 335.091 C 1205.43 294.952 1127.01 275.459 1036 270.635 C 855.469 261.065 678.691 285.403 539.529 409.775 C 438.075 500.196 376.824 627.31 369.324 763.004 C 362.764 884.935 397.857 1086.98 441.453 1201.3 C 458.738 1245.54 480.285 1288 505.788 1328.07 C 522.111 1353.75 540.784 1377.85 561.565 1400.07 C 570.609 1409.78 580.448 1418.46 589.278 1428.26 C 588.221 1439.02 585.191 1454.6 583.333 1465.57 L 568.505 1550.22 L 548.406 1668.78 C 542.692 1703.31 536.962 1737.84 530.615 1772.26 C 529.437 1778.65 527.422 1786.66 520.348 1788.16 C 513.762 1786.56 511.717 1775.35 512.819 1770 C 515.78 1755.62 518.305 1741.02 520.806 1726.56 L 538.4 1623.79 L 561.11 1492.76 C 564.216 1474.86 567.027 1451.66 570.915 1434.45 C 448.338 1314.18 398.114 1159.39 370.363 993.857 C 360.768 936.623 354.038 883.004 351.124 825.052 C 343.305 675.883 394.98 535.277 497.589 426.703 C 619.053 298.179 772.842 257.624 944.024 251.549 z"/>
<path transform="translate(0,0)" fill="rgb(213,234,236)" d="M 870.596 345.073 C 887.819 344.318 900.385 352.849 903.46 370.091 C 913.685 370.338 1020.67 373.839 1022.75 372.651 C 1025.2 351.744 1043.3 340.835 1061.49 349.549 C 1082.76 359.737 1079.72 377.363 1070.78 393.564 C 1080.95 409.926 1089.71 423.959 1100.6 440.081 C 1115.36 435.823 1132.4 442.776 1136.3 458.66 C 1138.23 466.215 1137.03 474.23 1132.97 480.885 C 1113.17 512.722 1063.92 480.138 1089.43 446.827 C 1079.27 431.594 1069.25 416.275 1059.35 400.872 C 1041.9 402.986 1034.47 400.874 1024.02 386.195 C 984.749 385.728 945.269 383.862 905.992 383.786 C 903.497 383.781 903.077 384.454 901.426 385.877 C 901.459 390.787 942.865 439.347 949.297 448.405 C 969.515 442.966 989.757 453.559 988.295 476.101 C 987.693 484.244 983.69 491.757 977.266 496.797 C 971.859 501.137 964.907 503.066 958.036 502.132 C 948.459 500.8 942.639 495.695 936.947 488.518 C 908.308 494.493 866.177 501.432 837.366 505.524 C 823.556 529.326 823.401 520.604 802.302 524.564 C 782.451 528.289 768.256 530.399 747.505 529.394 C 739.12 528.988 726.471 529.955 717.767 530.244 C 709.042 531.091 697.672 531.018 688.721 531.203 C 671.614 545.247 648.018 558.19 640.043 578.632 C 637.284 585.706 624.037 618.908 626.17 624.366 C 629.365 626.135 632.644 626.687 636.272 626.208 C 665.92 622.299 696.42 611.976 726.041 608.668 C 729.673 600.631 732.037 595.093 739.262 589.395 C 751.321 579.885 767.166 585.229 775.698 596.789 C 780.416 603.207 782.217 611.314 780.659 619.126 C 777.529 635.684 762.807 642.394 746.813 638.978 C 737.726 637.037 732.431 628.644 728.064 621.068 C 697.325 627.592 665.094 634.316 634.609 641.286 C 631.704 665.124 609.187 676.341 590.775 661.252 C 584.751 656.346 581.085 649.119 580.684 641.361 C 579.482 621.465 595.706 614.52 612.776 614.014 C 631.99 549.226 632.471 563.038 678.561 520.906 C 680.751 495.27 682.725 469.616 684.482 443.947 C 669.852 430.699 662.001 410.182 681.492 397.092 C 687.787 392.872 695.55 391.449 702.933 393.162 C 712.123 395.355 717.908 401.038 722.52 408.931 C 733.978 405.487 747.688 403.334 759.574 400.312 C 789.179 392.786 819.129 386.334 848.243 377.07 C 847.25 359.787 854.597 350.246 870.596 345.073 z"/>
<path transform="translate(0,0)" fill="rgb(248,246,242)" d="M 847.71 392.191 C 860.494 390.39 865.254 407.812 890.618 396.423 C 906.744 416.927 923.001 436.392 938.507 457.434 C 935.376 463.911 933.681 468.928 931.314 475.713 C 899.802 480.432 868.362 485.616 837.002 491.262 C 833.286 480.71 828.212 473.221 816.671 470.178 C 809.182 468.149 801.185 469.356 794.628 473.503 C 786.197 478.873 783.161 485.557 781.151 494.854 C 781.293 503.926 783.385 507.099 787.805 514.58 C 764.197 517.098 719.07 516.326 693.094 517.082 C 694.526 493.641 696.839 470.335 698.231 447.156 C 700.747 446.203 703.238 445.187 705.702 444.109 C 715.187 439.858 720.422 433.526 723.968 424.021 C 757.871 413.896 812.898 399.873 847.71 392.191 z"/>
<path transform="translate(0,0)" fill="rgb(213,234,236)" d="M 580.456 487.128 C 587.683 486.716 594.225 487.563 600.413 491.635 C 606.273 495.517 610.321 501.596 611.644 508.499 C 613.136 515.935 611.375 523.653 606.805 529.705 C 600.687 537.928 594.238 540.23 584.763 541.498 L 584.016 542.258 C 572.662 553.661 550.598 585.896 539.526 600.263 C 530.767 611.627 511.315 635.658 504.285 646.618 C 506.245 658.545 506.769 662.58 501.288 673.668 C 525.913 691.167 555.361 708.708 581.207 724.961 C 588.016 719.587 595.687 716.032 604.568 716.981 C 611.659 717.809 618.107 721.488 622.429 727.169 C 629.542 736.377 628.831 743.143 627.771 753.611 C 650.586 768.618 673.63 783.272 696.897 797.568 C 707.528 785.639 715.397 781.956 731.524 784.795 C 744.314 771.355 758.008 758.527 771.432 745.698 C 768.103 738.338 766.636 733.27 768.195 725.001 C 769.687 717.17 774.418 710.333 781.223 706.178 C 799.243 695.07 814.182 704.862 822.958 721.469 C 823.527 747.211 807.807 763.55 781.955 753.689 C 768.048 766.893 756.1 778.544 742.873 792.54 C 748.816 804.157 752.872 815.456 744.916 827.572 C 740.936 833.59 734.689 837.74 727.599 839.077 C 708.138 842.906 696.163 829.188 693.417 811.199 C 666.9 796.773 644.927 781.675 619.999 764.765 C 595.005 776.588 571.669 765.139 575.646 736.077 L 563.555 729.351 C 535.74 713 517.278 701.832 492.428 681.725 L 481.063 683.135 C 478.717 729.083 474.361 776.539 471.786 823.035 C 491.837 830.957 496.673 847.233 486.017 865.846 C 501.758 887.409 528.109 914.57 546.281 935.555 C 552.341 932.459 558.26 930.229 565.191 930.589 C 580.622 931.391 592.786 946.332 590.579 961.663 C 589.634 968.622 585.961 974.92 580.368 979.168 C 567.241 988.947 550.12 984.976 540.981 971.633 C 535.687 963.903 536.28 954.965 538.231 946.174 C 517.181 923.598 494.921 898.776 475.974 874.352 C 461.632 877.524 447.933 875.69 440.988 860.986 C 437.745 854.091 437.531 846.154 440.399 839.095 C 444.086 830.015 450.389 826.161 458.723 822.462 C 459.241 783.329 463.709 720.269 468.685 681.393 C 457.043 672.179 449.526 660.623 456.292 645.322 C 459.081 639.047 464.398 634.247 470.925 632.112 C 479.567 629.218 487.281 630.763 495.103 634.818 C 520.373 605.963 547.091 567.217 570.772 536.163 C 551.537 518.872 555.992 495.784 580.456 487.128 z"/>
<path transform="translate(0,0)" fill="rgb(213,234,236)" d="M 927.194 549.241 C 931.173 548.866 936.405 548.217 940.256 548.985 C 947.633 550.428 954.092 554.844 958.112 561.197 C 962.229 567.664 963.459 575.557 961.505 582.97 C 956.649 601.093 940.479 606.084 923.846 600.526 C 914.259 611.161 901.738 623.211 894.666 635.396 C 893.243 637.848 891.764 647.102 889.38 651.997 C 893.652 663.373 899.209 674.81 903.294 686.363 C 914.163 689.533 924.412 693.431 929.98 704.315 C 933.2 710.637 933.655 718.01 931.237 724.68 C 928.647 732.069 923.065 738.026 915.858 741.088 C 907.101 744.772 900.515 743.52 892.141 740.163 C 872.433 726.441 873.67 706.917 890.814 691.573 C 886.347 681.765 882.332 670.769 878.412 660.659 L 876.996 660.769 C 866.1 661.519 856.247 660.635 847.742 652.8 C 842.566 648.088 839.514 641.483 839.28 634.487 C 839.04 626.64 841.904 619.015 847.253 613.267 C 862.031 597.439 877.587 606.061 890.271 618.28 C 896.79 611.988 907.12 599.839 913.656 592.713 C 902.86 574.835 908.096 558.048 927.194 549.241 z"/>
</svg>