<svg version="1.1" xmlns="http://www.w3.org/2000/svg" style="display: block;" viewBox="0 0 2048 2048" width="1024" height="1024" preserveAspectRatio="none" xmlns:c2pa="http://c2pa.org/manifest"><metadata><c2pa:manifest>AAAMZ2p1bWIAAAAeanVtZGMycGEAEQAQgAAAqgA4m3EDYzJwYQAAAAxBanVtYgAAAEdqdW1kYzJtYQARABCAAACqADibcQN1cm46YzJwYTo4YmQwN2RmMS1iOTRhLTRjNjQtOWQ3My05NTU3M2YzMDdmMDAAAAAB4mp1bWIAAAApanVtZGMyYXMAEQAQgAAAqgA4m3EDYzJwYS5hc3NlcnRpb25zAAAAAO1qdW1iAAAAQWp1bWRjYm9yABEAEIAAAKoAOJtxE2MycGEuYWN0aW9ucy52MgAAAAAYYzJzaNElAlSGU+QgsDvWQU5ahP8AAACkY2JvcqFnYWN0aW9uc4GjZmFjdGlvbmxjMnBhLmNyZWF0ZWRxZGlnaXRhbFNvdXJjZVR5cGV4Rmh0dHA6Ly9jdi5pcHRjLm9yZy9uZXdzY29kZXMvZGlnaXRhbHNvdXJjZXR5cGUvdHJhaW5lZEFsZ29yaXRobWljTWVkaWFrZGVzY3JpcHRpb252Q3JlYXRlZCBieSBSZWNyYWZ0IEFJLgAAAMRqdW1iAAAAQGp1bWRjYm9yABEAEIAAAKoAOJtxE2MycGEuaGFzaC5kYXRhAAAAABhjMnNoyTylrlVUsR6M66DMlh3fGwAAAHxjYm9ypWpleGNsdXNpb25zgaJlc3RhcnQY22ZsZW5ndGgZEIxkbmFtZW5qdW1iZiBtYW5pZmVzdGNhbGdmc2hhMjU2ZGhhc2hYIKH2797GPSYQTiBDAYJQqWM4S2KdnVmEnZttUk7X/NMDY3BhZEkAAAAAAAAAAAAAAAI0anVtYgAAACdqdW1kYzJjbAARABCAAACqADibcQNjMnBhLmNsYWltLnYyAAAAAgVjYm9ypmppbnN0YW5jZUlEeCx4bXA6aWlkOmJiNjhhMWVlLTE5ZTAtNDEyYi04MGZiLTcwNDUwOGQwOWM3ZnRjbGFpbV9nZW5lcmF0b3JfaW5mb6NkbmFtZWpyZWNyYWZ0LmFpZ3ZlcnNpb254KDgxY2U4MmUyYzVjM2NiZmJlOGM2ZmJlMTc5ZDVmOGQ5MWM0MDljZTF3b3JnLmNvbnRlbnRhdXRoLmMycGFfcnNmMC45MC43aXNpZ25hdHVyZXhNc2VsZiNqdW1iZj0vYzJwYS91cm46YzJwYTo4YmQwN2RmMS1iOTRhLTRjNjQtOWQ3My05NTU3M2YzMDdmMDAvYzJwYS5zaWduYXR1cmVyY3JlYXRlZF9hc3NlcnRpb25zgqJjdXJseCpzZWxmI2p1bWJmPWMycGEuYXNzZXJ0aW9ucy9jMnBhLmFjdGlvbnMudjJkaGFzaFggRuIcxFX5A59lgJbm5kBDDvjALdLiIXp113NVrlfrlAuiY3VybHgpc2VsZiNqdW1iZj1jMnBhLmFzc2VydGlvbnMvYzJwYS5oYXNoLmRhdGFkaGFzaFggVqUxOhJ+viVAgLlyobrQJ6iw0qMhC2wpBDaHQEITL3FoZGM6dGl0bGV4GlJlY3JhZnQgQUkgR2VuZXJhdGVkIEltYWdlY2FsZ2ZzaGEyNTYAAAfcanVtYgAAAChqdW1kYzJjcwARABCAAACqADibcQNjMnBhLnNpZ25hdHVyZQAAAAesY2JvctKEWQOwogEmGCGCWQHnMIIB4zCCAYmgAwIBAgIJALfeWmNDUW56MAoGCCqGSM49BAMCMEAxHzAdBgNVBAMMFlJlY3JhZnQgU3RhZ2luZyBEZXYgQ0ExEDAOBgNVBAoMB1JlY3JhZnQxCzAJBgNVBAYTAlVTMB4XDTI2MDYxMjE5NDM1MFoXDTI3MDYxMjE5NDM1MFowNzELMAkGA1UEBhMCVVMxEzARBgNVBAoTClJlY3JhZnQgQUkxEzARBgNVBAMTCnJlY3JhZnQuYWkwWTATBgcqhkjOPQIBBggqhkjOPQMBBwNCAARKaTVbACsg/DeG3LeOxYdID/VA6EFG73E6Oknb+KIiCFJygRUz4ueN2z/t2qYb6CIUvS8RvgOiiClfoqsYtw81o3UwczAMBgNVHRMBAf8EAjAAMA4GA1UdDwEB/wQEAwIGwDATBgNVHSUEDDAKBggrBgEFBQcDBDAdBgNVHQ4EFgQULzHpBen96SL1y4IPHa8MkMshXf0wHwYDVR0jBBgwFoAUAgsqOBrKqpdK//m/kxZo7ZR4ebcwCgYIKoZIzj0EAwIDSAAwRQIgU8hKW0aXvvk8SQgVFNkax69Ym9ae8GsT2RZTQw+B51ACIQC0D4BkEoRD4N0r2ZRkNy0HZaW3WICy/QZGN95ilF4yzFkBvTCCAbkwggFfoAMCAQICCQCc+Wg7T6ATbzAKBggqhkjOPQQDAjBAMR8wHQYDVQQDDBZSZWNyYWZ0IFN0YWdpbmcgRGV2IENBMRAwDgYDVQQKDAdSZWNyYWZ0MQswCQYDVQQGEwJVUzAeFw0yNjA2MTIxOTQwMTZaFw0yODA2MTExOTQwMTZaMEAxHzAdBgNVBAMMFlJlY3JhZnQgU3RhZ2luZyBEZXYgQ0ExEDAOBgNVBAoMB1JlY3JhZnQxCzAJBgNVBAYTAlVTMFkwEwYHKoZIzj0CAQYIKoZIzj0DAQcDQgAEQ9IQBlcVbKaKPYrQSfOhL/00s7xUDC7RinIuLO/I1k99y9yh6oWF9kPxaP+tx1v1PeOL3yrVquJ730H0ZGiDyqNCMEAwDwYDVR0TAQH/BAUwAwEB/zAOBgNVHQ8BAf8EBAMCAYYwHQYDVR0OBBYEFAILKjgayqqXSv/5v5MWaO2UeHm3MAoGCCqGSM49BAMCA0gAMEUCIFQwNImLlYDeQhjgF+ZiqTbgcuzSqmOJw3Q2lQ/hu83FAiEA9O8cLm/xfoVLqB4jtdbuHzi3WL+p2RN+DRGkwpYswVuhY3BhZFkDpAAAAAAAAAAAAAAAAAAAAAAAAAAAAAAAAAAAAAAAAAAAAAAAAAAAAAAAAAAAAAAAAAAAAAAAAAAAAAAAAAAAAAAAAAAAAAAAAAAAAAAAAAAAAAAAAAAAAAAAAAAAAAAAAAAAAAAAAAAAAAAAAAAAAAAAAAAAAAAAAAAAAAAAAAAAAAAAAAAAAAAAAAAAAAAAAAAAAAAAAAAAAAAAAAAAAAAAAAAAAAAAAAAAAAAAAAAAAAAAAAAAAAAAAAAAAAAAAAAAAAAAAAAAAAAAAAAAAAAAAAAAAAAAAAAAAAAAAAAAAAAAAAAAAAAAAAAAAAAAAAAAAAAAAAAAAAAAAAAAAAAAAAAAAAAAAAAAAAAAAAAAAAAAAAAAAAAAAAAAAAAAAAAAAAAAAAAAAAAAAAAAAAAAAAAAAAAAAAAAAAAAAAAAAAAAAAAAAAAAAAAAAAAAAAAAAAAAAAAAAAAAAAAAAAAAAAAAAAAAAAAAAAAAAAAAAAAAAAAAAAAAAAAAAAAAAAAAAAAAAAAAAAAAAAAAAAAAAAAAAAAAAAAAAAAAAAAAAAAAAAAAAAAAAAAAAAAAAAAAAAAAAAAAAAAAAAAAAAAAAAAAAAAAAAAAAAAAAAAAAAAAAAAAAAAAAAAAAAAAAAAAAAAAAAAAAAAAAAAAAAAAAAAAAAAAAAAAAAAAAAAAAAAAAAAAAAAAAAAAAAAAAAAAAAAAAAAAAAAAAAAAAAAAAAAAAAAAAAAAAAAAAAAAAAAAAAAAAAAAAAAAAAAAAAAAAAAAAAAAAAAAAAAAAAAAAAAAAAAAAAAAAAAAAAAAAAAAAAAAAAAAAAAAAAAAAAAAAAAAAAAAAAAAAAAAAAAAAAAAAAAAAAAAAAAAAAAAAAAAAAAAAAAAAAAAAAAAAAAAAAAAAAAAAAAAAAAAAAAAAAAAAAAAAAAAAAAAAAAAAAAAAAAAAAAAAAAAAAAAAAAAAAAAAAAAAAAAAAAAAAAAAAAAAAAAAAAAAAAAAAAAAAAAAAAAAAAAAAAAAAAAAAAAAAAAAAAAAAAAAAAAAAAAAAAAAAAAAAAAAAAAAAAAAAAAAAAAAAAAAAAAAAAAAAAAAAAAAAAAAAAAAAAAAAAAAAAAAAAAAAAAAAAAAAAAAAAAAAAAAAAAAAAAAAAAAAAAAAAAAAAAAAAAAAAAAAAAAAAAAAAAAAAAAAAAAAAAAAAAAAAAAAAAAAAAAAAAAAAAAAAAAAAAAAAAAAAAAAAAAAAA9lhAJ80B/P8j8k5sTpf9/3pEe7M7Jwiz2y/YdugXHvgObotPbQBgJlGvfcYlKfqVjIC1mGRJyxuVVeUOyRcQ/GQTAw==</c2pa:manifest></metadata>
<path transform="translate(0,0)" fill="rgb(248,246,242)" d="M 0 0 L 2048 0 L 2048 2048 L 0 2048 L 0 0 z"/>
<path transform="translate(0,0)" fill="rgb(71,193,198)" d="M 894.877 529.315 C 911.91 529.232 941.094 528.321 956.937 530.056 C 974.302 540.679 971.621 556.304 972.039 574.324 C 1004.62 583.508 1034.25 592.882 1061.02 614.232 C 1096.39 575.501 1101.27 588.625 1133.38 620.937 C 1164.96 652.717 1158.02 655.322 1128.43 684.37 C 1148.11 709.68 1160.28 743.372 1166.73 774.656 C 1213.41 773.807 1210.95 779.302 1211.47 824.232 C 1211.97 867.683 1208.47 869.353 1166.25 869.803 C 1155.2 907.634 1149.4 923.477 1128.15 957.26 C 1134.8 964.352 1150.38 977.127 1151.28 986.822 C 1152.63 1001.4 1131.63 1018.86 1122.62 1028.65 C 1115.66 1035.65 1104.39 1048.97 1093.92 1049.88 C 1083.42 1050.79 1067 1033.99 1059.48 1027.3 C 1024.98 1046.89 1011.88 1054.12 973.254 1064.37 C 972.01 1084.67 974.548 1099.07 953.722 1108.86 C 952.946 1108.92 952.169 1108.96 951.391 1108.99 C 935.045 1109.69 915.885 1110.62 899.655 1109.14 C 872.861 1106.7 875.763 1082.18 875.767 1063.32 C 835.249 1054.09 824.859 1050.13 790.553 1027.53 C 785.618 1032.55 780.718 1037.57 775.626 1042.4 C 753.132 1063.71 733.71 1037.51 718.147 1022.47 C 708.558 1013.25 693.617 1000.61 695.931 985.68 C 697.336 976.614 711.271 962.105 718.631 957.039 C 698.592 924.239 690.312 909.141 682.08 869.862 L 677.908 869.985 C 647.12 870.81 639.51 861.27 639.941 831.207 C 640.498 792.311 633.945 768.55 682.812 770.881 C 688.015 741.249 700.569 709.03 717.551 684.15 C 706.586 672.241 684.96 656.747 699.081 639.451 C 711.287 624.501 738.118 594.281 756.942 588.124 C 766.571 584.974 785.468 606.096 792.588 612.551 C 813.014 595.607 847.279 582.012 872.902 575.263 C 874.065 555.834 871.523 534.347 894.877 529.315 z"/>
<path transform="translate(0,0)" fill="rgb(248,246,242)" d="M 894.571 550.941 L 950.007 551.301 C 950.129 562.019 949.989 573.266 951.216 583.87 C 960.79 598.142 986.29 600.106 1003.39 606.58 C 1012.78 610.224 1021.96 614.368 1030.91 618.995 C 1040.36 623.867 1051.79 634.679 1061.15 635.698 C 1070.56 636.723 1088.34 617.125 1094.28 611.023 C 1107.78 626.061 1118.3 636.879 1133.07 650.716 C 1094.69 689.717 1106.43 679.689 1129.02 725.407 C 1131.35 730.128 1139.98 751.579 1140.78 756.097 C 1148.25 798.634 1149.06 794.086 1190.18 795.285 C 1189.91 813.146 1189.79 831.008 1189.81 848.871 C 1134.78 849.738 1153.37 853.235 1133.62 902.145 C 1131.36 907.739 1122.25 928.713 1119.02 932.805 C 1095.28 962.912 1105.23 963.555 1130.81 989.391 C 1119.94 1002.19 1106.13 1015.42 1094.57 1028.05 C 1083.58 1020.44 1071.37 1006.15 1059.74 1002.88 C 1047.8 1005.42 1035.62 1016.69 1024.52 1022.1 C 1011.34 1028.1 990.954 1039.75 976.587 1040.98 C 947.785 1043.45 952.366 1063.43 950.691 1088.54 C 933.09 1088.38 915.487 1088.47 897.889 1088.81 C 896.498 1080.87 896.565 1053.17 891.954 1049.47 C 882.213 1041.64 850.475 1036.19 836.922 1029.93 C 819.747 1022 805.974 1008.9 789.266 1005.18 C 783.247 1003.84 762.005 1026.56 756.928 1031.47 C 743.908 1017.61 729.288 1004.38 715.925 990.251 C 723.231 980.04 733.378 972.84 739.918 962.311 C 742.19 958.653 739.936 950.57 737.786 946.977 C 727.354 929.538 715.844 912.157 709.394 892.715 C 705.554 881.139 704.294 868.689 699.738 857.419 C 699.108 855.846 693.121 852.051 691.66 851.096 C 681.35 850.868 671.373 851.138 661.28 849.158 C 660.512 833.536 660.735 808.544 661.454 793.05 C 671.796 792.877 689.165 793.793 697.632 789.196 C 705.666 774.314 707.705 748.842 715.98 732.18 C 719.107 726.561 723.314 713.499 727.068 708.511 C 750.57 677.291 740.892 677.727 715.496 652.037 L 757.475 609.634 C 764.846 616.01 781.05 632.983 790.423 634.67 C 797.85 636.007 810.974 623.516 817.444 619.751 C 826.85 614.278 837.575 609.609 847.859 605.771 C 858.99 601.09 881.867 597.538 890.271 590.174 C 896.245 584.939 894.617 559.834 894.571 550.941 z"/>
<path transform="translate(0,0)" fill="rgb(71,193,198)" d="M 954.903 676.123 C 974.064 675.014 1004.88 694.318 1018.83 707.019 C 1038.75 725.157 1023.25 737.568 1008.72 750.26 C 1013.62 759.136 1018.31 765.866 1024.49 773.829 C 1030.81 770.962 1048.2 765.159 1054.01 767.683 C 1076.64 777.512 1073.53 831.945 1068.12 850.62 C 1061.38 873.887 1039.09 862.817 1023.75 857.055 C 1019.66 866.897 1015.32 874.645 1008.24 882.567 C 1039.61 905.023 1030.66 918.532 1002.47 937.833 C 991.045 945.66 979.925 951.97 966.532 955.744 C 941.211 962.879 941.36 940.468 937.613 922.791 C 927.823 923.2 919.471 923.132 909.73 922.94 C 906.322 937.642 906.19 950.31 891.922 957.996 C 869.504 956.573 842.03 940.168 826.18 924.828 C 807.009 906.272 828.189 893.65 841.722 881.989 C 834.462 872.229 832.688 867.859 828.916 856.262 C 801.839 865.178 783.405 872.453 780.324 834.148 C 779.084 818.739 777.818 782.902 792.187 771.912 C 798.923 766.76 819.452 774.24 827.722 776.491 C 832.007 767.276 835.061 761.092 840.644 752.667 C 833.898 747.692 817.684 736.997 816.994 729.608 C 814.494 702.842 873.674 680.228 891.252 676.317 C 906.548 681.989 907.652 695.044 912.773 709.347 C 921.121 709.038 928.468 708.768 936.801 709.051 C 940.785 696.299 942.309 682.222 954.903 676.123 z"/>
<path transform="translate(0,0)" fill="rgb(248,246,242)" d="M 963.278 698.123 C 979.994 706.495 991.05 712.735 1006.7 723.089 C 979.158 749.587 981.927 744.236 997.222 772.948 C 1014.85 806.038 1015.03 799.53 1048.57 788.55 C 1051.68 811.556 1051.71 820.578 1049.16 843.235 C 1046.19 842.181 1039.34 839.94 1036.96 838.948 C 1010.02 827.566 1010.73 838.294 998.65 859.622 C 993.609 868.518 985.856 874.488 986.516 885.186 C 987.152 895.512 998.639 902.767 1005.93 908.965 C 991.588 920.639 979.595 928.362 962.935 936.082 C 958.2 933.479 957.376 907.017 949.995 904.83 C 940.481 902.01 906.336 900.396 898.122 903.608 C 890.277 911.341 887.88 925.201 885.031 936.051 C 863.67 928.104 860.265 925.678 842.485 911.034 C 869.053 886.525 872.059 891.158 853.516 860.222 C 836.885 832.476 843.002 826.404 802.353 841.618 C 800.332 827.778 800.001 805.996 802.43 792.384 C 809.496 794.189 834.389 801.98 838.983 796.006 C 848.281 783.963 860.031 765.234 864.234 750.796 C 865.851 745.242 846.104 730.801 841.921 726.403 L 840.896 725.316 C 858.15 711.67 865.367 707.79 885.082 698.983 C 890.368 703.433 889.814 729.144 900.808 730.272 C 914.079 731.634 928.859 729.164 942.694 730.225 C 957.016 731.323 960.193 708.554 963.278 698.123 z"/>
<path transform="translate(0,0)" fill="rgb(71,193,198)" d="M 1506.23 553.398 C 1531.73 550.266 1569.18 560.45 1588.81 576.485 C 1609.02 592.995 1601.3 589.942 1626.52 597.082 C 1671.23 611.029 1706.87 651.732 1713.04 698.322 C 1716.15 721.789 1711.44 735.136 1706.69 757.166 C 1705.66 761.904 1708.43 781.084 1708.78 787.008 C 1710.5 817.019 1701.27 846.634 1682.81 870.353 C 1661.27 897.678 1629.79 915.366 1595.25 919.553 C 1595.13 919.575 1595.01 919.596 1594.89 919.618 C 1560.1 923.04 1525.27 913.475 1497.11 892.763 C 1479.99 880.191 1472.51 870.026 1461.45 852.627 C 1458.99 848.761 1448.78 837.715 1445.21 833.138 C 1430.65 814.5 1427.15 795.893 1423.64 773.301 C 1376.27 721.95 1370.58 656.253 1415.58 600.109 C 1438.82 571.121 1469.58 556.983 1506.23 553.398 z"/>
<path transform="translate(0,0)" fill="rgb(248,246,242)" d="M 1550.55 671.354 C 1574.03 667.809 1599.15 673.778 1620.28 683.952 C 1618.42 732.576 1593.2 770.663 1547.09 787.355 C 1528.47 791.867 1517.54 792.191 1498.86 789.046 C 1488.56 773.298 1482.52 761.627 1479.89 742.78 C 1478.04 729.585 1477.02 711.157 1486.03 700.51 C 1501.25 682.535 1528.38 674.243 1550.55 671.354 z"/>
<path transform="translate(0,0)" fill="rgb(248,246,242)" d="M 1507.07 574.411 C 1533.92 571.697 1549.98 580.009 1573.72 590.338 C 1570.36 590.894 1566.99 591.485 1563.64 592.11 C 1509.33 602.344 1476.86 641.318 1462.55 687.776 C 1461.6 690.847 1446.23 710.552 1443.1 715.143 C 1436.17 726.482 1433.18 733.706 1428.38 746.187 C 1416.38 731.055 1409.02 712.771 1407.2 693.546 C 1404.21 664.882 1412.89 636.224 1431.28 614.03 C 1451.05 590.136 1476.54 577.326 1507.07 574.411 z"/>
<path transform="translate(0,0)" fill="rgb(248,246,242)" d="M 1640.54 696.467 C 1641.02 696.706 1641.49 696.944 1641.96 697.183 C 1662.37 714.507 1675.39 735.049 1682.29 759.607 C 1678.47 765.486 1674.22 771.072 1669.57 776.318 C 1643.73 805.55 1604.42 824.451 1565.44 827.04 C 1545.63 825.418 1537.41 822.892 1520.67 812.269 C 1588.61 810.619 1633.25 762.276 1640.54 696.467 z"/>
<path transform="translate(0,0)" fill="rgb(248,246,242)" d="M 1687.68 787.839 C 1692.28 797.969 1680.64 832.641 1675.21 842.808 C 1661.84 867.57 1639.11 885.947 1612.09 893.835 C 1578.85 903.513 1546.41 895.907 1516.83 879.472 C 1510.26 875.712 1503.17 870.302 1497.3 865.554 C 1564.1 873.85 1650.18 846.428 1687.68 787.839 z"/>
<path transform="translate(0,0)" fill="rgb(248,246,242)" d="M 1581.31 611.407 C 1586.38 611.236 1592.48 611.635 1597.63 611.834 C 1607.53 627.951 1613.97 641.241 1618.06 659.721 C 1587.34 648.443 1560.34 645.657 1528.27 652.741 C 1514.5 655.94 1505.02 660.601 1493.06 667.774 C 1514.62 634.154 1540.96 615.375 1581.31 611.407 z"/>
<path transform="translate(0,0)" fill="rgb(248,246,242)" d="M 1625.84 618.697 C 1667.82 638.216 1697.47 675.204 1692.06 723.349 C 1689.88 722.975 1679.73 705.906 1675.2 701.305 C 1664.96 690.917 1653.37 677.524 1639.72 671.504 C 1638.43 649.832 1633.74 638.425 1625.84 618.697 z"/>
<path transform="translate(0,0)" fill="rgb(248,246,242)" d="M 1449.06 794.429 C 1456.6 797.328 1483.25 807 1488.01 810.549 C 1501.82 820.833 1512.41 835.943 1531.04 841.276 C 1533.61 842.012 1550.93 846.593 1552.17 847.49 C 1533.44 851.454 1507.88 847.78 1490.48 839.944 C 1466.18 829.004 1458.19 818.15 1449.06 794.429 z"/>
<path transform="translate(0,0)" fill="rgb(248,246,242)" d="M 1457.21 733.597 C 1458.89 737.6 1459.4 754.988 1460.98 760.446 C 1462.7 766.361 1464.86 772.13 1466.75 777.987 L 1466.13 778.604 L 1461.32 776.076 C 1456.88 773.01 1451.06 769.571 1446.4 766.644 C 1449.55 752.701 1451.22 746.487 1457.21 733.597 z"/>
<path transform="translate(0,0)" fill="rgb(71,193,198)" d="M 893.573 426.43 C 1009.37 420.846 1117.18 452.117 1207.39 525.74 C 1295.2 597.411 1355.14 704.343 1364 817.777 C 1373.94 945.028 1341.96 1082.27 1285 1195.69 C 1277.04 1211.24 1268.56 1226.52 1259.59 1241.51 C 1248.35 1260.04 1233.31 1281.63 1227 1302.06 C 1210.05 1356.96 1205.44 1414.4 1203.82 1471.3 C 1202.71 1515.75 1203.31 1560.22 1205.62 1604.61 C 1207.09 1629.58 1210.61 1654.67 1211.17 1679.65 C 1211.26 1683.8 1211.37 1687.28 1208.4 1690.45 C 1206.4 1692.58 1203.98 1693.42 1201.07 1693.42 C 1197.97 1693.42 1193.91 1691.58 1192.21 1688.96 C 1187 1680.92 1185.14 1608.35 1184.35 1593.35 C 1179.61 1503 1178.22 1373.5 1209.65 1289.15 C 1221.26 1257.99 1242.24 1231.56 1257.64 1202.31 C 1296.69 1128.24 1323.27 1048.23 1336.31 965.517 C 1340.83 937.144 1343.38 908.493 1343.95 879.768 C 1346.91 778.291 1325.94 700.736 1265.9 617.891 C 1200.05 528.68 1101.56 469.156 991.967 452.326 C 862.121 431.665 706.205 471.834 600.164 548.992 C 509.826 612.608 448 708.083 459.144 821.43 C 464.414 875.04 470.946 925.031 455.2 977.716 C 436.615 1039.9 389.741 1076.56 352.609 1125.93 C 341.001 1150.44 382.134 1159.18 394.259 1163.03 C 421.101 1171.55 471.631 1173.9 481.086 1203.67 L 481.515 1205.05 C 474.846 1224.19 463.906 1231.24 459.862 1253.5 C 469.227 1268.43 476.114 1265.23 485.623 1277.94 C 493.611 1288.15 476.224 1300.44 476.58 1306.33 C 477.998 1329.73 509.1 1323.43 513.989 1350.75 C 521.214 1391.13 502.846 1429.06 526.633 1465.62 C 546.439 1496.06 581.405 1511.63 617.297 1508.56 C 645.261 1505.6 673.27 1496.89 700.207 1509.47 C 720.008 1518.34 732.743 1536.44 735.493 1557.89 C 740.253 1595.02 739.002 1633 738.909 1670.37 C 738.895 1676.01 738.926 1680.28 737.899 1685.79 C 735.758 1697.27 718.636 1695.06 717.994 1684.67 C 716.96 1669.89 718.769 1654.87 718.31 1640.06 C 717.462 1612.72 718.788 1583.72 713.648 1556.81 C 709.126 1533.14 685.504 1521.7 663.099 1523.56 C 643.48 1525.2 623.669 1529.73 603.88 1529.27 C 542.964 1528.47 490.511 1479.38 493.322 1417 C 494.337 1394.47 497.742 1373.36 492.286 1350.9 C 487.394 1347.8 481.905 1345.19 476.944 1341.94 C 454.538 1327.28 449.812 1309.94 463.037 1286.73 C 427.033 1257.81 439.367 1238.52 458.469 1204.68 C 419.757 1186.45 377.68 1188.4 345.272 1164.71 C 337.289 1158.88 329.702 1145.7 328.957 1135.53 C 327.188 1111.39 358.571 1085.61 374.369 1067.89 C 426.927 1008.92 448.676 963.684 442.917 883.321 C 441.573 859.924 438.392 836.467 437.272 813.072 C 425.804 573.575 688.904 437.055 893.573 426.43 z"/>
</svg>