<svg version="1.1" xmlns="http://www.w3.org/2000/svg" style="display: block;" viewBox="0 0 2048 2048" width="1024" height="1024" preserveAspectRatio="none" xmlns:c2pa="http://c2pa.org/manifest"><metadata><c2pa:manifest>AAAMZ2p1bWIAAAAeanVtZGMycGEAEQAQgAAAqgA4m3EDYzJwYQAAAAxBanVtYgAAAEdqdW1kYzJtYQARABCAAACqADibcQN1cm46YzJwYTo5MDdhMDlhMi04ZDgzLTQ5MDgtODRkNy1lNWMxZWI2ZDZlY2UAAAAB4mp1bWIAAAApanVtZGMyYXMAEQAQgAAAqgA4m3EDYzJwYS5hc3NlcnRpb25zAAAAAO1qdW1iAAAAQWp1bWRjYm9yABEAEIAAAKoAOJtxE2MycGEuYWN0aW9ucy52MgAAAAAYYzJzaMMbmh8x7JEEo5yJw6xWR20AAACkY2JvcqFnYWN0aW9uc4GjZmFjdGlvbmxjMnBhLmNyZWF0ZWRxZGlnaXRhbFNvdXJjZVR5cGV4Rmh0dHA6Ly9jdi5pcHRjLm9yZy9uZXdzY29kZXMvZGlnaXRhbHNvdXJjZXR5cGUvdHJhaW5lZEFsZ29yaXRobWljTWVkaWFrZGVzY3JpcHRpb252Q3JlYXRlZCBieSBSZWNyYWZ0IEFJLgAAAMRqdW1iAAAAQGp1bWRjYm9yABEAEIAAAKoAOJtxE2MycGEuaGFzaC5kYXRhAAAAABhjMnNowgP9Qa/AvfF4MHTWh2KubwAAAHxjYm9ypWpleGNsdXNpb25zgaJlc3RhcnQY22ZsZW5ndGgZEIxkbmFtZW5qdW1iZiBtYW5pZmVzdGNhbGdmc2hhMjU2ZGhhc2hYIBJEOL8Oxpqo0enRwUoALpQL8efND1wavZuqreNkZ29KY3BhZEkAAAAAAAAAAAAAAAI0anVtYgAAACdqdW1kYzJjbAARABCAAACqADibcQNjMnBhLmNsYWltLnYyAAAAAgVjYm9ypmppbnN0YW5jZUlEeCx4bXA6aWlkOmZiNjM4NDkyLTk0YzYtNGVmYy05N2JjLTM5Y2RlYTk5ZDFlMnRjbGFpbV9nZW5lcmF0b3JfaW5mb6NkbmFtZWpyZWNyYWZ0LmFpZ3ZlcnNpb254KDgxY2U4MmUyYzVjM2NiZmJlOGM2ZmJlMTc5ZDVmOGQ5MWM0MDljZTF3b3JnLmNvbnRlbnRhdXRoLmMycGFfcnNmMC45MC43aXNpZ25hdHVyZXhNc2VsZiNqdW1iZj0vYzJwYS91cm46YzJwYTo5MDdhMDlhMi04ZDgzLTQ5MDgtODRkNy1lNWMxZWI2ZDZlY2UvYzJwYS5zaWduYXR1cmVyY3JlYXRlZF9hc3NlcnRpb25zgqJjdXJseCpzZWxmI2p1bWJmPWMycGEuYXNzZXJ0aW9ucy9jMnBhLmFjdGlvbnMudjJkaGFzaFggwcmu4ywQhXGHBg3FeT4Lpl77/ysVu+QH5PE3Vq1l/KyiY3VybHgpc2VsZiNqdW1iZj1jMnBhLmFzc2VydGlvbnMvYzJwYS5oYXNoLmRhdGFkaGFzaFggYCj3coh6mdUkpRHn/wUuvCE32R6v2rg5wv8lBdfH8CFoZGM6dGl0bGV4GlJlY3JhZnQgQUkgR2VuZXJhdGVkIEltYWdlY2FsZ2ZzaGEyNTYAAAfcanVtYgAAAChqdW1kYzJjcwARABCAAACqADibcQNjMnBhLnNpZ25hdHVyZQAAAAesY2JvctKEWQOwogEmGCGCWQHnMIIB4zCCAYmgAwIBAgIJALfeWmNDUW56MAoGCCqGSM49BAMCMEAxHzAdBgNVBAMMFlJlY3JhZnQgU3RhZ2luZyBEZXYgQ0ExEDAOBgNVBAoMB1JlY3JhZnQxCzAJBgNVBAYTAlVTMB4XDTI2MDYxMjE5NDM1MFoXDTI3MDYxMjE5NDM1MFowNzELMAkGA1UEBhMCVVMxEzARBgNVBAoTClJlY3JhZnQgQUkxEzARBgNVBAMTCnJlY3JhZnQuYWkwWTATBgcqhkjOPQIBBggqhkjOPQMBBwNCAARKaTVbACsg/DeG3LeOxYdID/VA6EFG73E6Oknb+KIiCFJygRUz4ueN2z/t2qYb6CIUvS8RvgOiiClfoqsYtw81o3UwczAMBgNVHRMBAf8EAjAAMA4GA1UdDwEB/wQEAwIGwDATBgNVHSUEDDAKBggrBgEFBQcDBDAdBgNVHQ4EFgQULzHpBen96SL1y4IPHa8MkMshXf0wHwYDVR0jBBgwFoAUAgsqOBrKqpdK//m/kxZo7ZR4ebcwCgYIKoZIzj0EAwIDSAAwRQIgU8hKW0aXvvk8SQgVFNkax69Ym9ae8GsT2RZTQw+B51ACIQC0D4BkEoRD4N0r2ZRkNy0HZaW3WICy/QZGN95ilF4yzFkBvTCCAbkwggFfoAMCAQICCQCc+Wg7T6ATbzAKBggqhkjOPQQDAjBAMR8wHQYDVQQDDBZSZWNyYWZ0IFN0YWdpbmcgRGV2IENBMRAwDgYDVQQKDAdSZWNyYWZ0MQswCQYDVQQGEwJVUzAeFw0yNjA2MTIxOTQwMTZaFw0yODA2MTExOTQwMTZaMEAxHzAdBgNVBAMMFlJlY3JhZnQgU3RhZ2luZyBEZXYgQ0ExEDAOBgNVBAoMB1JlY3JhZnQxCzAJBgNVBAYTAlVTMFkwEwYHKoZIzj0CAQYIKoZIzj0DAQcDQgAEQ9IQBlcVbKaKPYrQSfOhL/00s7xUDC7RinIuLO/I1k99y9yh6oWF9kPxaP+tx1v1PeOL3yrVquJ730H0ZGiDyqNCMEAwDwYDVR0TAQH/BAUwAwEB/zAOBgNVHQ8BAf8EBAMCAYYwHQYDVR0OBBYEFAILKjgayqqXSv/5v5MWaO2UeHm3MAoGCCqGSM49BAMCA0gAMEUCIFQwNImLlYDeQhjgF+ZiqTbgcuzSqmOJw3Q2lQ/hu83FAiEA9O8cLm/xfoVLqB4jtdbuHzi3WL+p2RN+DRGkwpYswVuhY3BhZFkDpAAAAAAAAAAAAAAAAAAAAAAAAAAAAAAAAAAAAAAAAAAAAAAAAAAAAAAAAAAAAAAAAAAAAAAAAAAAAAAAAAAAAAAAAAAAAAAAAAAAAAAAAAAAAAAAAAAAAAAAAAAAAAAAAAAAAAAAAAAAAAAAAAAAAAAAAAAAAAAAAAAAAAAAAAAAAAAAAAAAAAAAAAAAAAAAAAAAAAAAAAAAAAAAAAAAAAAAAAAAAAAAAAAAAAAAAAAAAAAAAAAAAAAAAAAAAAAAAAAAAAAAAAAAAAAAAAAAAAAAAAAAAAAAAAAAAAAAAAAAAAAAAAAAAAAAAAAAAAAAAAAAAAAAAAAAAAAAAAAAAAAAAAAAAAAAAAAAAAAAAAAAAAAAAAAAAAAAAAAAAAAAAAAAAAAAAAAAAAAAAAAAAAAAAAAAAAAAAAAAAAAAAAAAAAAAAAAAAAAAAAAAAAAAAAAAAAAAAAAAAAAAAAAAAAAAAAAAAAAAAAAAAAAAAAAAAAAAAAAAAAAAAAAAAAAAAAAAAAAAAAAAAAAAAAAAAAAAAAAAAAAAAAAAAAAAAAAAAAAAAAAAAAAAAAAAAAAAAAAAAAAAAAAAAAAAAAAAAAAAAAAAAAAAAAAAAAAAAAAAAAAAAAAAAAAAAAAAAAAAAAAAAAAAAAAAAAAAAAAAAAAAAAAAAAAAAAAAAAAAAAAAAAAAAAAAAAAAAAAAAAAAAAAAAAAAAAAAAAAAAAAAAAAAAAAAAAAAAAAAAAAAAAAAAAAAAAAAAAAAAAAAAAAAAAAAAAAAAAAAAAAAAAAAAAAAAAAAAAAAAAAAAAAAAAAAAAAAAAAAAAAAAAAAAAAAAAAAAAAAAAAAAAAAAAAAAAAAAAAAAAAAAAAAAAAAAAAAAAAAAAAAAAAAAAAAAAAAAAAAAAAAAAAAAAAAAAAAAAAAAAAAAAAAAAAAAAAAAAAAAAAAAAAAAAAAAAAAAAAAAAAAAAAAAAAAAAAAAAAAAAAAAAAAAAAAAAAAAAAAAAAAAAAAAAAAAAAAAAAAAAAAAAAAAAAAAAAAAAAAAAAAAAAAAAAAAAAAAAAAAAAAAAAAAAAAAAAAAAAAAAAAAAAAAAAAAAAAAAAAAAAAAAAAAAAAAAAAAAAAAAAAAAAAAAAAAAAAAAAAAAAAAAAAAAAAAAAAAAAAAAAAAAAAAAAAAAAAAAAAAAAAAAAAAAAAAAAAAAAAAAAAAAAAAAAAAAAAAAAAAAAAAAAAAAAAAAAAAAAAAAAA9lhAqb5+ktwPi3j/UXfJM+XAiuCcQ2Qa3QuBTXBb+vidqJeQCUc7/6HVcwGwk6+blvfysuE3x3PkFLY7nS46nNkolQ==</c2pa:manifest></metadata>
<path transform="translate(0,0)" fill="rgb(248,246,242)" d="M 0 0 L 2048 0 L 2048 2048 L 0 2048 L 0 0 z"/>
<path transform="translate(0,0)" fill="rgb(213,234,236)" d="M 1489.75 226.694 C 1494 226.802 1495.2 226.448 1498.55 228.689 C 1500.07 230.553 1501.02 232.164 1501.23 234.653 C 1506.13 292.52 1513.42 350.628 1517.46 408.557 C 1534.05 393.696 1556.13 375.002 1570.98 359.532 C 1570.04 348.32 1566.23 304.346 1576.92 299.957 C 1580.12 300.77 1584.22 304.287 1584.47 307.496 C 1585.55 320.981 1584.8 335.169 1585.25 348.765 C 1592.79 343.649 1601.46 328.937 1610.65 334.669 C 1617.36 346.221 1598.39 356.978 1590.41 364.765 C 1567.89 386.752 1542.03 406.22 1519.83 428.569 C 1524.05 475.056 1526.8 521.664 1528.08 568.324 C 1535.15 562.529 1542.27 556.82 1549 550.627 C 1549.17 537.798 1548.6 524.729 1548.81 511.892 C 1548.92 505.334 1549.6 499.407 1556.13 496.72 C 1559.42 496.997 1559.44 496.706 1561.91 498.776 C 1565.18 505.808 1562.88 527.189 1563.39 537.004 L 1563.47 538.398 C 1583.52 524.361 1605.24 506.338 1624.63 490.962 C 1623.86 482.347 1621.1 460.552 1624.06 453.088 C 1625.82 451.306 1627.34 449.717 1630.08 449.76 C 1641.45 449.937 1638.94 472.12 1638.92 480.242 C 1646.62 474.143 1659.4 462.975 1669.05 461.89 C 1674.7 461.253 1679.58 469.844 1672.17 475.867 C 1651.58 492.611 1627.75 506.271 1608.04 524.005 C 1625.27 524.257 1648.88 521.304 1665.02 526.26 C 1669.07 527.566 1666.74 535.678 1664.76 536.144 C 1644.6 540.912 1609.97 539.59 1589.78 539.077 C 1571.15 550.435 1548.12 575.196 1529.15 587.604 C 1529.62 641.316 1527.66 691.726 1525.96 745.319 C 1535.85 745.928 1545.86 745.969 1555.74 746.608 C 1564.49 747.173 1574.49 745.237 1576.63 756.158 C 1574.81 762.278 1570.79 763.223 1564.66 762.959 C 1528.86 761.417 1493.44 758.514 1457.56 760.133 C 1447.62 760.582 1423.61 766.492 1415.64 763.809 C 1412.1 760.415 1410.76 755.973 1413.95 751.784 C 1423.41 747.056 1453.94 745.071 1465.55 744.18 C 1465.15 722.703 1464.95 701.222 1464.96 679.741 L 1465.02 597.801 C 1437.14 578.501 1411.91 558.68 1382.61 540.835 C 1371.99 540.739 1319.71 542.132 1313.67 539.287 C 1297.65 518.471 1356.2 525.416 1363.99 525.705 C 1353.51 519.35 1293.19 474.441 1291.39 466.02 C 1290.84 463.424 1291.92 461.479 1293.15 459.309 C 1302.86 453.276 1321.37 473.603 1329.05 480.172 C 1329.13 471.209 1327.39 454.934 1336.45 450.536 C 1349.52 452.026 1344.91 482.405 1344.8 493.707 C 1363.35 507.25 1383.15 520.689 1402.04 533.802 C 1402.09 521.261 1401.69 508.658 1401.83 496.116 C 1401.92 488.911 1401.88 480.559 1409.64 477.835 C 1412.74 478.229 1416.48 480.925 1416.71 484.1 C 1418.13 504.047 1417.2 524.625 1417.9 544.673 C 1433.03 555.099 1449.36 567.655 1464.66 578.486 C 1465.29 538.465 1466.67 498.459 1468.83 458.49 C 1432.66 419.687 1392.2 379.44 1355.62 340.59 C 1352.66 337.446 1355.62 331.143 1360.04 329.041 C 1369.43 329.83 1378.69 342.425 1384.98 349.643 C 1385.22 339.064 1382.72 302.426 1387.77 297.727 C 1402.66 283.872 1400.04 326.22 1399.98 328.826 C 1399.68 340.678 1399.29 351.374 1398.87 362.433 C 1404.1 369.226 1414.44 378.995 1420.78 385.345 C 1420.76 373.616 1416.83 326.583 1428.67 324.104 C 1431.92 325.234 1435.33 327.338 1435.48 331.098 C 1436.38 353.736 1435.53 377.35 1435.62 400.027 C 1447.2 413.345 1458.94 426.516 1470.85 439.536 C 1474.52 389.869 1479.88 334.63 1481.22 285.456 C 1472.07 276.23 1439.82 250.205 1446.53 238.653 C 1455.16 233.047 1459.98 241.197 1465.8 247.152 C 1471.92 253.417 1476.75 259.461 1483.52 265.212 C 1483.6 252.908 1481.57 235.125 1489.75 226.694 z"/>
<path transform="translate(0,0)" fill="rgb(248,246,242)" d="M 1494.47 335.743 C 1496.74 340.042 1498.74 372.496 1499.38 379.315 C 1508.97 482.576 1517.55 585.63 1511.18 689.409 C 1510.52 700.22 1511.36 733.651 1509.14 742.825 C 1506.14 744.941 1503.84 744.098 1499.5 744.018 L 1481.06 743.948 C 1479.81 650.552 1478.84 556.427 1484.55 463.223 C 1486.94 424.33 1489.07 374.142 1494.47 335.743 z"/>
<path transform="translate(0,0)" fill="rgb(213,234,236)" d="M 403.195 314.627 C 406.863 314.837 407.231 314.535 410.212 316.742 C 415.456 324.386 426.021 480.795 428.331 500.286 C 441.92 482.884 468.488 461.903 484.171 444.391 C 482.369 432.926 477.276 397.914 485.718 390.318 C 489.894 389.283 487.908 389.187 491.901 390.471 C 499.272 397.542 497.404 421.337 498.134 433.95 C 503.607 427.871 521.801 403.69 528.043 421.355 C 527.29 429.622 506.589 446.219 500.264 452.609 C 477.793 475.31 451.888 496.261 430.158 519.54 C 429.972 526.019 430.108 532.827 430.415 539.308 C 432.145 575.795 431.112 612.596 432.867 649.038 C 441.821 643.625 452.965 633.667 461.125 626.704 C 460.986 617.771 460.729 608.727 461.037 599.8 C 461.289 592.538 462.28 586.994 470.521 585.74 C 479.798 589.136 475.956 608.65 475.114 616.926 C 493.997 601.472 516.395 588.811 536.024 572.865 C 537.321 558.126 535.498 542.899 537.986 528.439 C 538.518 525.35 542.322 523.445 545.01 522.409 C 555.968 524.032 552.993 552.725 552.931 562.171 C 564.021 555.418 575.326 543.321 587.484 540.139 C 591.307 541.021 596.829 544.865 594.929 548.836 C 590.974 557.1 575.087 565.652 567.45 570.818 C 553.794 580.058 540.264 589.483 526.864 599.091 C 538.936 599.209 574.968 595.508 580.799 605.357 C 581.366 608.963 581.279 608.712 579.806 612.096 C 574.298 617.335 517.078 615.164 506.039 615.124 C 485.22 628.392 452.925 652.89 434.035 669.111 L 435.428 776.806 C 435.713 795.556 435.62 816.377 437.032 834.862 C 451.255 834.81 465.968 836.39 480.114 837.847 C 486.696 838.525 495.339 843.227 493.936 850.921 C 492.584 852.387 490.531 854.053 488.474 854.229 C 472.671 855.689 455.589 850.996 439.616 851.027 C 408.399 851.087 376.746 848.853 345.776 853.442 C 340.968 854.154 331.413 856.275 327.462 853.379 C 322.312 849.606 322.126 845.634 325.998 840.929 C 334.605 836.471 362.57 835.097 373.541 834.429 C 374.289 831.726 374.178 820.998 374.196 817.714 C 374.45 772.132 376.929 725.666 375.197 680.211 C 356.14 661.948 330.42 636.774 307.688 624.169 C 295.779 617.565 241.292 631.85 233.89 616.165 C 234.663 604.616 272.758 607.628 282.351 607.396 L 280.54 606.49 C 265.599 598.833 220.47 566.046 209.257 549.938 C 208.705 547.937 209.155 544.261 210.634 542.815 C 219.297 534.348 237.81 556.884 244.166 563.156 C 243.79 558.201 241.816 540.465 245.383 537.688 C 264.56 522.758 258.559 566.179 258.39 574.735 C 276.504 586.533 295.032 597.683 313.938 608.166 C 314.089 599.291 311.597 572.909 315.94 569.074 C 335.168 552.094 329.008 612.868 328.92 618.194 C 347.79 631.508 360.762 643.614 376.769 659.715 C 376.322 640.948 377.369 621.552 377.75 602.717 C 378.019 580.709 378.111 558.7 378.026 536.691 C 369.073 529.602 270.69 429.859 269.107 425.591 C 268.116 422.919 268.562 422.097 269.405 419.522 C 280.204 409.177 293.843 430.135 301.934 438.377 C 301.98 428.955 302.098 418.951 302.611 409.563 C 303.062 401.32 301.606 383.805 311.663 382.157 C 313.372 382.773 314.853 383.224 316.084 384.663 C 320.649 390.004 316.484 442.502 316.134 452.692 C 323.104 459.669 328.436 465.066 336.14 471.318 C 337.791 459.6 338.82 447.855 340.286 436.122 C 341.109 429.525 341.788 420.803 349.598 419.698 C 351.521 420.425 352.716 421.022 354.075 422.556 C 358.647 427.717 351.16 477.756 350.495 487.678 C 359.974 496.276 370.212 508.107 379.157 517.671 C 381.296 488.972 383.79 460.301 386.637 431.664 C 388.456 412.801 390.959 390.304 391.154 371.702 C 383.667 363.705 361.236 342.293 358.183 333.974 C 358.263 330.078 358.394 330.235 360.463 327.143 C 368.18 322.991 374.412 330.543 379.569 335.84 C 384.693 341.102 389.743 346.399 394.886 351.648 C 396.492 340.261 394.418 322.042 403.195 314.627 z"/>
<path transform="translate(0,0)" fill="rgb(248,246,242)" d="M 404.602 413.188 C 406.639 421.513 408.713 446.416 409.686 455.992 C 415.688 515.061 416.203 574.903 416.848 634.281 C 417.564 700.137 421.289 768.716 419.971 834.326 L 404.635 834.365 L 389.935 834.515 C 390.224 761.742 391.136 688.973 392.672 616.216 C 393.431 566.02 393.539 516.669 398.648 466.605 C 400.325 450.169 401.319 429.004 404.602 413.188 z"/>
<path transform="translate(0,0)" fill="rgb(213,234,236)" d="M 1052.18 608.5 C 1057.54 608.034 1066.26 606.582 1070.34 609.635 C 1071.48 611.256 1072.42 612.31 1072.58 614.365 C 1073.21 622.921 1052.57 622.674 1046.8 623.204 C 1001.96 627.317 875.85 641.171 844.232 675.545 C 838.895 681.348 835.018 689.566 835.604 697.604 C 836.835 714.476 859.001 724.056 872.411 729.601 C 923.857 750.872 981.426 761.253 1035.6 773.229 C 1131.21 794.364 1326.74 837.221 1400.37 897.054 C 1421.19 913.979 1438.86 934.736 1441.51 962.391 C 1451.12 1062.88 1272.44 1142.13 1197.75 1175.16 C 1159.66 1192 1121.28 1207.8 1082.73 1223.56 C 1061.71 1232.15 1041.01 1241.51 1019.96 1250.05 C 975.332 1268.16 930.529 1285.63 886.647 1305.51 C 845.671 1324.08 793.62 1343.66 764.728 1379.46 C 755.196 1391.26 749.568 1404.25 751.391 1419.75 C 755.418 1453.98 788.436 1479.75 815.034 1497.55 C 849.045 1520.32 887.641 1538.07 925.04 1554.45 C 984.629 1580.56 1045.49 1603.09 1106.78 1624.85 C 1233.71 1669.34 1361.66 1710.82 1490.54 1749.27 C 1531.13 1761.22 1571.63 1773.47 1612.57 1784.15 C 1621.38 1786.45 1624.76 1788.08 1625.12 1797.01 C 1623.05 1799.18 1621.62 1801.69 1618.42 1801.93 C 1609.56 1802.59 1522.46 1774.79 1505.02 1769.58 C 1344.17 1721.53 1183.99 1671.49 1027.08 1611.66 C 948.589 1581.73 855.84 1548.84 788.605 1497.87 C 763.765 1479.04 739.974 1455.5 735.864 1423.01 C 732.506 1396.47 745.712 1373.09 765.035 1355.86 C 801.803 1323.07 856.067 1302.07 900.735 1282.5 C 955.792 1258.37 1011.87 1235.89 1067.54 1213.2 C 1164.78 1173.57 1341.13 1106.71 1404.23 1025.31 C 1417.49 1008.2 1429.62 985.173 1426.41 962.78 C 1422.56 935.876 1399.61 914.645 1378.24 900.302 C 1298.9 847.058 1126.92 809.176 1031.22 787.762 C 984.293 777.263 878.068 758.964 840.331 730.108 C 830.286 722.426 821.176 711.487 819.784 698.513 C 818.491 686.463 823.407 675.957 831.045 667.009 C 867.914 623.818 996.9 613.098 1052.18 608.5 z"/>
<path transform="translate(0,0)" fill="rgb(213,234,236)" d="M 1210.34 893.794 C 1213.74 894.055 1215.25 894.204 1218.35 895.74 C 1271.15 921.927 1256.92 974.123 1214.59 1001.77 C 1157.36 1039.15 1088.32 1063.46 1024.37 1087.02 C 919.129 1124.85 814.201 1163.55 709.6 1203.12 C 639.148 1230.5 560.588 1259.61 497.225 1301.04 C 468.825 1319.62 441.793 1341.71 426.293 1372.61 C 415.239 1394.65 413.673 1419.13 421.448 1442.5 C 460.543 1560.01 804.863 1706.04 918.254 1752.12 C 949.188 1764.69 980.265 1777.26 1011.53 1789 C 1021.51 1792.75 1043.55 1798.72 1051.77 1803.68 C 1053.78 1804.89 1055.73 1806.68 1056.07 1809.11 C 1056.67 1813.36 1054.34 1816.15 1051.88 1819.28 C 1041.6 1818.37 986.096 1796.4 973.8 1791.6 C 898.089 1761.74 823.366 1729.42 749.75 1694.71 C 659.7 1652.43 580.268 1610.69 498.891 1553.1 C 392.421 1477.75 354.153 1382.94 475.912 1296.85 C 534.22 1255.62 598.939 1229.9 665.565 1203.63 C 715.301 1183.85 765.391 1164.97 815.811 1147.01 L 1056.29 1058.19 C 1111.41 1037.25 1188.04 1011.78 1228.57 967.13 C 1260.54 931.906 1206.55 910.226 1205.2 901.036 C 1206.05 897.484 1207.73 896.381 1210.34 893.794 z"/>
<path transform="translate(0,0)" fill="rgb(213,234,236)" d="M 613.35 921.181 C 643.732 919.637 663.137 933.657 670.631 963.226 C 693.469 948.674 723.001 952.752 737.798 976.621 C 747.303 991.953 746.103 1007.1 742.005 1023.65 C 745.393 1023.96 748.77 1024.39 752.13 1024.93 C 760.683 1026.29 772.34 1030.15 777.622 1037.41 C 778.627 1040.95 778.57 1040.69 777.713 1044.29 C 769.764 1053.39 753.849 1037.63 741.656 1038.35 C 731.959 1038.92 731.811 1044.82 725.513 1046.5 C 714.394 1049.47 712.038 1026.08 701.003 1020.03 C 680.276 1007.18 667.798 1024.66 650.533 1031.75 C 646.255 1032.34 643.751 1027.33 644.46 1024.19 C 646.25 1016.27 654.648 1010.5 661.577 1007.05 C 688.959 993.426 708.956 1002.96 726.129 1024.77 C 733.729 997.453 727.718 969.347 693.444 971.709 C 675.527 972.944 676.687 989.807 661.484 983.554 C 657.051 981.731 656.608 967.247 654.265 961.68 C 648.937 949.021 644.678 944.321 631.89 938.589 C 614.883 933.89 597.068 937.699 589.462 955.221 C 585.537 964.264 585.869 974.761 576.311 979.187 C 563.782 978.154 555.598 948.16 530.337 958.917 C 502.228 970.888 521.823 1001.26 511.959 1010.6 C 500.671 1013.19 459.214 967.616 447.71 1025.59 C 449.769 1031.29 456.631 1043.46 451.491 1048.12 C 442.506 1055.03 434.421 1042.03 424.046 1040.45 C 412.105 1038.64 394.611 1055.78 386.672 1046.52 C 382.175 1026.58 419.717 1025.26 433.043 1027.31 C 432.852 1018.72 433.513 1012.51 437.335 1004.67 C 442.428 994.295 451.488 986.413 462.467 982.805 C 474.811 978.737 485.559 980.078 496.946 985.602 C 501.229 944.857 539.032 926.516 571.3 955.067 C 580.732 934.674 590.837 925.883 613.35 921.181 z"/>
<path transform="translate(0,0)" fill="rgb(213,234,236)" d="M 1541.61 1234.35 C 1570.48 1230.06 1587.42 1246.87 1599.35 1270.52 C 1611.37 1265.52 1621.12 1263.36 1634.31 1266.76 C 1646.71 1269.83 1657.37 1277.73 1663.91 1288.71 C 1672.05 1302.56 1672.05 1316.28 1668.06 1331.2 C 1677.86 1332.05 1687.41 1334.72 1696.24 1339.06 C 1703.22 1342.51 1713.73 1348.87 1708.88 1357.91 C 1697.86 1364.3 1686.62 1348.6 1675.08 1346.87 C 1657.76 1344.28 1646.7 1360.01 1636.55 1340.75 C 1629 1326.43 1619.71 1321.08 1603.91 1323.2 C 1592.49 1324.72 1581.23 1338.77 1572.12 1335.03 C 1568.77 1330.96 1569.96 1324.97 1573.71 1321.6 C 1602.33 1295.83 1629.21 1306.38 1651.61 1331.87 C 1660.21 1303.05 1647.33 1273.39 1611.31 1281.46 C 1606.27 1282.58 1602.44 1290.73 1593.59 1290.99 C 1581.28 1285.5 1591.47 1253.28 1548.36 1248.15 C 1509.51 1249.33 1512.61 1282.88 1503.43 1287.96 C 1494.99 1287.62 1489.92 1279.22 1483.1 1273.77 C 1468.72 1262.26 1451.95 1268.82 1441.37 1281.93 C 1433.44 1291.75 1437.09 1306.64 1439.59 1317.73 C 1440.37 1321.17 1440.23 1322.82 1438.2 1325.72 C 1422.16 1331.71 1427.17 1310.96 1404.04 1308.48 C 1396.37 1307.61 1388.68 1309.96 1382.82 1314.99 C 1374.42 1322.2 1373.12 1329.58 1372.26 1339.67 C 1375.34 1345.31 1380.15 1351.87 1374.44 1357.11 C 1365.86 1359.15 1355.99 1353.21 1347.33 1351.12 C 1332.64 1347.59 1326.61 1368.12 1313.36 1364.68 C 1307.08 1359.37 1309.43 1353.75 1314.79 1348.63 C 1326.77 1337.18 1340.58 1335.84 1356.28 1336.08 C 1357.07 1331.16 1358.22 1324.92 1360.05 1320.31 C 1364.55 1308.99 1373.6 1300.08 1384.99 1295.77 C 1397.18 1291.14 1407.85 1291.83 1419.41 1297.04 C 1424.19 1258.16 1467.5 1238.97 1497.79 1264.98 C 1508.06 1245.42 1519.25 1236.86 1541.61 1234.35 z"/>
<path transform="translate(0,0)" fill="rgb(213,234,236)" d="M 588.812 1328.97 C 616.639 1330.88 593.645 1358.21 584.214 1367.32 C 555.994 1367.61 576.494 1335.93 588.812 1328.97 z"/>
<path transform="translate(0,0)" fill="rgb(213,234,236)" d="M 668.124 1273.01 C 676.219 1272.91 684.49 1276.47 681.5 1286.86 C 679.366 1294.28 665.579 1299.59 658.564 1302.95 C 651.17 1302.54 643.306 1294.51 646.593 1287.11 C 648.757 1282.24 662.835 1275.46 668.124 1273.01 z"/>
<path transform="translate(0,0)" fill="rgb(213,234,236)" d="M 763.918 1237.12 C 772.839 1236.46 781.035 1240.76 778.346 1251.69 C 776.663 1258.53 762.831 1261.65 756.39 1263.65 C 747.734 1265.43 739.767 1257.24 744.076 1248.78 C 747.957 1241.15 756.393 1239.55 763.918 1237.12 z"/>
<path transform="translate(0,0)" fill="rgb(213,234,236)" d="M 860.864 1205.08 C 876.632 1204.79 878.662 1225.08 862.491 1228 C 859.625 1228.51 852.877 1231.51 850.044 1232.75 C 842.173 1231.66 833.699 1226.11 839.044 1217.22 C 843.739 1209.41 852.744 1207.49 860.864 1205.08 z"/>
<path transform="translate(0,0)" fill="rgb(213,234,236)" d="M 955.009 1173.02 C 963.177 1172.96 967.654 1182.17 964.653 1188.82 C 961.957 1194.79 949.546 1198.61 943.336 1201.11 C 935.696 1201.54 930.109 1191.91 932.041 1185.62 C 934.076 1178.99 948.812 1175.12 955.009 1173.02 z"/>
<path transform="translate(0,0)" fill="rgb(213,234,236)" d="M 1137.02 1098.08 C 1143.53 1098.2 1150.93 1104.82 1148.76 1111.27 C 1146.39 1118.35 1133.51 1122.89 1126.97 1125.78 C 1120.5 1124.36 1110.13 1119.74 1114.8 1111.21 C 1119.2 1103.15 1128.82 1100.57 1137.02 1098.08 z"/>
<path transform="translate(0,0)" fill="rgb(213,234,236)" d="M 1225.63 1056.85 C 1229.67 1056.89 1237.36 1059.12 1238.53 1063.21 C 1241.67 1074.2 1227.49 1080.76 1220.56 1083.98 C 1211.6 1085.13 1202.95 1080.99 1207.12 1070.29 C 1210.17 1062.45 1218.41 1059.96 1225.63 1056.85 z"/>
<path transform="translate(0,0)" fill="rgb(213,234,236)" d="M 1043.72 1136.94 C 1046.96 1137.05 1052.12 1137.76 1054.2 1140.43 C 1064.49 1153.59 1045.7 1160.16 1037.75 1164.92 C 1029.69 1164.6 1022.22 1159.93 1024.52 1149.75 C 1025.66 1144.68 1038.54 1139.41 1043.72 1136.94 z"/>
<path transform="translate(0,0)" fill="rgb(213,234,236)" d="M 616.277 1413.9 C 621.79 1414.2 624.715 1415.89 628.702 1419.66 C 639.959 1430.28 638.073 1437.93 626.383 1445.31 C 621.815 1445.1 617.553 1441.82 614.388 1438.68 C 603.806 1428.18 603.453 1420.7 616.277 1413.9 z"/>
<path transform="translate(0,0)" fill="rgb(213,234,236)" d="M 1305.29 1008.05 C 1311.41 1006.96 1320.9 1010.45 1319.26 1018.27 C 1317.39 1027.18 1312.27 1030.57 1305.49 1035.45 C 1304.12 1035.81 1302.72 1036.03 1301.31 1036.1 C 1294.16 1036.51 1289.49 1031.14 1291 1023.93 C 1292.86 1014.96 1298.18 1012.56 1305.29 1008.05 z"/>
<path transform="translate(0,0)" fill="rgb(213,234,236)" d="M 1308.93 938.995 C 1326.7 937.89 1335.49 956.337 1321.22 967.571 C 1315.48 968.345 1311.92 967.24 1307.94 962.918 C 1304.34 958.977 1302.56 953.705 1303.04 948.388 C 1303.46 943.5 1305.45 941.988 1308.93 938.995 z"/>
</svg>